<svg id="Layer_1" data-name="Layer 1" xmlns="http://www.w3.org/2000/svg" viewBox="0 0 63 79.01"><defs><style>.cls-1{fill:#ff6207;}</style></defs><path class="cls-1" d="M17.65,52.85c1.83-4.06,3.71-8,5.41-12.1a3.38,3.38,0,0,0-.41-2.35c-2-4.14-4.11-8.2-6.09-12.34-2.28-4.76-3.8-9.68-2.57-15a14.41,14.41,0,0,1,7.45-9.83C25.67-1.12,30.78,0,33.86,4.41a63.83,63.83,0,0,1,5.68,11c5.74,13.16,11.34,26.39,17,39.6.88,2.05,1.86,3.92,4.63,3.85.46,0,.94,1.06,1.83,2.15H44c-.52-1.33-.42-2.25,1.39-2.21,5,.1,5.09-.81,3.15-5.37-1.36-3.18-2.64-6.4-3.88-9.63a2.73,2.73,0,0,0-3.08-2.06c-2.94.14-5.9,0-9.39,0a38.19,38.19,0,0,1,1.83,4c1.44,4.5,3.46,8.95,4,13.57,1.15,9.77-6.87,18.8-16.76,19.54-5.56.42-11-.07-15.61-3.66-5.8-4.48-7.5-14.35-3.54-20.48C6,48.84,11.33,48.12,17.65,52.85Zm8.91,7.38-.64.83H10.48V59l2.19-.3c2.54-.39,2.89-1,1.72-3.2a5.37,5.37,0,0,0-8.2-1.87c-3.14,2.2-4.44,6.27-3.42,10.67,1.87,8.05,11.34,12.91,19.59,10,4.57-1.62,8.35-4.15,8.84-9.47.7-7.34-2-13.8-5.74-20.45-1.45,3.35-2.78,6.23-4,9.17-1.7,4.16-1.37,4.61,3,5.29C25.23,59,25.87,59.76,26.56,60.23ZM26.2,33.91c2.79-6.41,5.07-12.08,7.68-17.6,1.61-3.4.87-6.39-.82-9.33A6.78,6.78,0,0,0,25.21,3.9C19.14,5.54,15.76,12.54,18.46,19,20.5,23.93,23.35,28.5,26.2,33.91Zm2.41,2.8h13c-2.16-5.1-4.23-10-6.48-15.34Z" transform="translate(0 -0.01)"/></svg>